<svg version="1.1" xmlns="http://www.w3.org/2000/svg" style="display: block;" viewBox="0 0 2048 2048" width="1024" height="1024">
<path transform="translate(0,0)" fill="rgb(255,255,255)" d="M 0 0 L 2048 0 L 2048 2048 L 0 2048 L 0 0 z"/>
<path transform="translate(0,0)" fill="rgb(9,31,83)" d="M 239.936 763.981 C 244.71 767.665 249.309 771.807 254.317 775.153 C 258.635 778.038 264.278 780.096 269.077 782.072 C 298.378 794.138 326.667 793.528 357.164 787.667 C 363.278 806.969 371.292 825.786 377.798 844.987 C 387.877 875.495 395.179 906.85 399.616 938.672 C 415.734 1060.79 385.483 1187.84 310.278 1286.12 C 284.049 1274.18 258.691 1260.98 234.528 1245.28 C 219.646 1236.04 205.354 1225.89 191.734 1214.87 C 89.1632 1133.06 40.6865 1011.23 26.3682 883.844 C 28.197 883.204 30.0044 882.505 31.7875 881.747 C 68.1127 866.308 94.5477 841.969 109.443 805.115 C 141.791 801.005 176.574 789.832 206.872 777.885 C 217.635 773.641 228.001 768.286 238.863 764.359 L 239.936 763.981 z"/>
<path transform="translate(0,0)" fill="rgb(255,255,255)" d="M 233.957 797.034 C 257.659 809.117 283.322 819.474 310.071 821.737 C 318.582 822.457 327.124 821.294 335.635 822.124 C 347.135 836.854 362.693 906.025 366.624 928.189 C 385.595 1035.17 362.03 1156.36 299.574 1245.76 C 275.951 1236.2 254.362 1223.79 233.569 1209.12 C 122.883 1128.15 79.356 1035.17 58.582 902.066 C 78.0931 890.584 98.0571 877.055 112.136 859.06 C 117.007 852.834 126.897 834.946 132.281 831.171 C 139.7 825.97 164.217 822.175 174.783 818.93 C 194.907 812.75 215.075 806.446 233.957 797.034 z"/>
<path transform="translate(0,0)" fill="rgb(176,39,57)" d="M 219.079 1010.23 C 219.538 1010.59 220.092 1010.86 220.456 1011.32 C 221.35 1012.45 279.328 1207.86 282.979 1223.08 C 272.799 1216.76 261.977 1211.69 251.86 1205.18 C 240.343 1197.37 228.799 1189.18 218.168 1180.19 C 213.388 1160.13 206.717 1140.27 200.714 1120.54 C 190.857 1088.13 180.801 1055.79 170.549 1023.51 C 186.689 1018.95 202.866 1014.52 219.079 1010.23 z"/>
<path transform="translate(0,0)" fill="rgb(9,31,83)" d="M 350.233 920.011 L 351.548 920.659 C 353.883 932.518 356.369 944.788 357.237 956.845 L 206.978 999.434 C 190.971 1003.98 115.228 1027.63 105.287 1026.73 C 102.146 1015.98 98.9952 1005.37 94.9053 994.932 C 115.248 987.001 137.213 982.145 158.171 976.003 L 293.358 936.663 C 312.284 931.098 331.594 926.443 350.233 920.011 z"/>
<path transform="translate(0,0)" fill="rgb(176,39,57)" d="M 311.166 985.23 C 315.267 988.279 342.647 1083.56 347.594 1097.26 C 340.745 1124.85 333.079 1154 320.332 1179.51 L 314.734 1163.42 C 310.437 1146.78 304.204 1130.34 298.968 1113.95 C 286.7 1075.55 273.98 1036.9 263.3 998.031 C 279.224 993.647 295.18 989.38 311.166 985.23 z"/>
<path transform="translate(0,0)" fill="rgb(9,31,83)" d="M 195.68 856.204 C 201.974 859.8 208.87 873.067 213.09 879.344 C 222.223 876.867 231.264 875.124 240.701 874.404 C 236.278 882.653 229.707 890.067 223.89 897.352 C 227.299 906.437 232.459 915.082 236.568 923.908 C 228.612 921.162 220.245 918.052 212.792 914.177 L 210.541 914.326 C 203.005 919.323 195.715 928.12 190.112 935.167 C 189.657 925.43 189.004 915.666 189.37 905.918 C 181.438 901.053 173.489 896.358 165.308 891.915 C 173.87 888.653 182.665 886.042 191.62 884.105 C 192.697 874.773 193.547 865.366 195.68 856.204 z"/>
<path transform="translate(0,0)" fill="rgb(176,39,57)" d="M 114.093 906.67 C 118.284 910.752 121.52 917.094 124.692 922.02 C 131.864 920.79 139.027 919.512 146.181 918.186 C 142.361 924.611 137.938 929.987 132.901 935.482 C 137.11 941.521 140.595 947.256 143.363 954.085 C 136.884 952.479 131.23 950.646 125.122 947.959 C 120.74 948.394 111.666 959.387 107.309 962.81 C 107.115 955.191 107.266 947.556 107.322 939.935 C 100.907 937.123 94.6715 933.676 88.4227 930.499 C 95.6548 928.952 102.953 927.637 110.211 926.214 C 111.117 919.631 111.309 912.771 114.093 906.67 z"/>
<path transform="translate(0,0)" fill="rgb(176,39,57)" d="M 296.858 857.727 C 301.172 861.21 303.169 867.119 307.563 870.507 C 312.691 874.46 321.268 871.681 327.123 870.771 C 324.223 875.858 320.737 880.742 317.512 885.635 C 320.739 891.879 324.294 897.996 327.686 904.155 C 320.282 902.786 313.453 899.503 306.193 897.557 C 302.628 903.923 298.202 908.579 292.999 913.585 C 292.907 906.097 292.875 898.608 292.901 891.119 C 286.898 888.595 281.059 886.078 275.393 882.853 C 281.362 880.471 286.851 878.682 293.217 877.663 C 294.172 870.923 295.156 864.326 296.858 857.727 z"/>
<path transform="translate(0,0)" fill="rgb(176,39,57)" d="M 126.206 1036.11 L 130.529 1036.03 C 134.922 1040.2 148.068 1097.65 150.357 1106.79 L 143.009 1096.37 C 130.567 1079.17 118.941 1060.3 110.243 1040.91 C 115.61 1039.53 120.908 1037.74 126.206 1036.11 z"/>
<path transform="translate(0,0)" fill="rgb(176,39,57)" d="M 674.605 811.496 L 1516.47 811.148 L 1765.81 811.162 C 1807.36 811.202 1849.54 812.934 1891.03 811.208 C 1928.85 852.168 1965.57 894.797 2001.93 937.086 C 1973.88 966.119 1948.48 998.887 1922.53 1029.83 C 1912.92 1041.28 1903.64 1053.34 1893.16 1063.97 C 1848.74 1063.36 1804.23 1063.92 1759.8 1063.95 L 1513.19 1064 L 419.763 1064.4 C 420.537 1057.69 420.786 1050.95 421.105 1044.2 L 658.5 1043.97 L 1881.91 1044.76 C 1896.52 1030.38 1909.33 1013.85 1922.67 998.293 C 1940.44 977.558 1958.69 957.289 1975.52 935.748 C 1965.16 921.272 1951.05 908.072 1939.1 894.719 C 1920.45 873.884 1902.54 852.36 1883.52 831.863 C 1862 830.661 1840.27 831.087 1818.71 831.072 L 1716.55 831.065 L 1387.2 831.586 L 393.388 831.848 C 391.988 825.021 389.54 818.276 387.46 811.619 L 674.605 811.496 z"/>
<path transform="translate(0,0)" fill="rgb(9,31,83)" d="M 415.395 1093.01 L 1524.76 1093.39 C 1640.08 1093.25 1755.52 1094.66 1870.82 1093.43 L 1857.72 1106.88 L 1851.52 1114.13 C 1670.18 1116.24 1488.67 1114.45 1307.3 1114.6 L 411.13 1113.79 C 412.765 1106.88 414.316 1100.03 415.395 1093.01 z"/>
<path transform="translate(0,0)" fill="rgb(9,31,83)" d="M 616.846 892.018 C 631.217 893.544 646.6 890.495 660.691 893.508 C 666.48 894.745 672.247 897.622 675.356 902.878 C 678.423 908.064 678.752 915.672 677.165 921.375 C 675.229 928.337 669.557 931.605 663.749 935.027 C 666.256 935.848 668.877 936.633 671.243 937.81 C 675.785 940.07 679.135 944.671 680.555 949.475 C 682.847 957.23 679.972 965.563 676.479 972.448 C 672.287 977.163 668.457 979.228 662.255 980.47 C 653.162 982.292 627.652 984.903 619.906 979.733 L 619.751 977.801 C 621.631 974.991 624.901 974.201 627.916 973.002 C 628.69 956.667 630.945 914.678 626.665 901.3 C 624.113 898.844 622.418 899.043 618.985 898.453 C 616.59 896.109 617.049 895.269 616.846 892.018 z"/>
<path transform="translate(0,0)" fill="rgb(255,255,255)" d="M 638.364 941.019 C 646.76 940.804 655.401 939.921 663.305 943.38 C 666.655 944.846 669.879 947.496 670.9 951.145 C 672.545 957.022 668.964 963.658 665.702 968.276 C 657.359 973.714 647.791 972.833 638.259 972.754 C 638.219 962.176 638.254 951.597 638.364 941.019 z"/>
<path transform="translate(0,0)" fill="rgb(255,255,255)" d="M 638.943 901.426 C 646.722 901.242 654.193 900.83 661.147 904.905 C 664.198 906.693 666.263 909.028 667.067 912.549 C 668.221 917.6 665.077 923.355 662.321 927.314 C 654.571 931.693 647.479 932.035 638.818 932.538 C 638.775 922.167 638.817 911.796 638.943 901.426 z"/>
<path transform="translate(0,0)" fill="rgb(9,31,83)" d="M 1608.42 917.189 C 1612.97 917.137 1617.24 917.314 1621.43 919.262 C 1627.04 921.866 1631.03 926.771 1633.12 932.522 C 1636.93 943.023 1636.04 957.037 1630.98 966.983 C 1626.6 975.587 1620.72 980.225 1611.67 983.162 C 1607.75 983.128 1604.28 982.873 1600.66 981.21 C 1594.01 978.151 1589.41 972.426 1587.01 965.595 C 1583.33 955.096 1583.96 942.441 1589.09 932.53 C 1593.42 924.176 1599.59 919.854 1608.42 917.189 z"/>
<path transform="translate(0,0)" fill="rgb(255,255,255)" d="M 1608.06 924.778 L 1608.48 924.798 C 1610.01 924.859 1612.02 924.792 1613.47 925.277 C 1617.05 926.472 1619.55 930.148 1621.01 933.443 C 1625.02 942.496 1624.49 955.921 1620.98 964.996 C 1618.86 970.485 1616.06 973.123 1610.77 975.484 C 1606.58 974.238 1603.65 972.763 1601.04 969.127 C 1595.94 962.025 1595.35 951.914 1596.76 943.56 C 1598.19 935.128 1601.01 929.632 1608.06 924.778 z"/>
<path transform="translate(0,0)" fill="rgb(9,31,83)" d="M 1656.37 916.915 C 1658.6 916.811 1660.09 916.548 1662.04 917.778 C 1663.88 920.964 1663.14 925.727 1663.07 929.323 C 1666.1 925.459 1669.07 921.876 1673.38 919.382 C 1677.25 917.14 1681.49 915.995 1685.88 917.34 C 1691.49 919.061 1693.69 923.236 1696.2 928.177 C 1698.7 925.566 1701.31 922.804 1704.33 920.805 C 1708.41 918.116 1715.02 914.201 1720.1 916.064 C 1737.14 922.326 1724.12 961.301 1731.72 974.339 C 1734.04 975.325 1735.37 975.972 1737.02 977.916 L 1736.59 980.062 C 1732.54 982.32 1719.71 980.893 1714.89 980.262 C 1713.5 978.569 1713.49 978.664 1713.63 976.485 C 1715.75 975.114 1717.22 974.101 1718.83 972.097 C 1719.9 963.209 1722.23 936.804 1716.05 930.032 C 1714.37 928.193 1712.6 927.129 1710.08 926.897 C 1706.31 926.549 1702.89 927.899 1700.15 930.473 C 1694.62 935.669 1695.97 946.354 1695.97 953.25 C 1695.92 956.377 1694.92 971.787 1696.67 973.557 C 1698.85 975.749 1701.77 974.58 1703.85 977.855 L 1703.09 979.501 C 1699.44 981.918 1691.55 981.248 1687 981.033 C 1684.41 980.91 1683.08 981.025 1681.32 978.969 C 1681.88 975.323 1685.43 975.353 1685.8 972.502 C 1686.79 964.851 1687.93 934.873 1683.13 929.655 C 1681.2 927.551 1679.28 926.747 1676.43 926.96 C 1673.24 927.198 1670.52 928.382 1668.37 930.794 C 1661.47 938.541 1662.31 956.815 1663.2 966.627 C 1663.71 972.244 1666.25 973.734 1670.26 977.154 L 1670.38 979.628 L 1668.46 980.876 C 1662.15 980.811 1650.51 983.274 1645.38 979.591 C 1645.01 977.42 1645.01 977.473 1646.17 975.604 C 1648.56 975.105 1650.31 974.907 1652.25 973.337 C 1655.48 959.41 1653.13 941.33 1652.96 927.011 C 1650.12 927.084 1647.13 927.384 1644.37 926.553 C 1642.81 926.083 1643.26 926.14 1642.38 924.564 C 1645.6 920.449 1651.63 918.78 1656.37 916.915 z"/>
<path transform="translate(0,0)" fill="rgb(9,31,83)" d="M 890.101 893.859 C 896.546 894.247 913.634 892.959 918.115 897.255 L 917.845 898.978 C 915.126 901.598 912.302 901.853 908.689 902.54 C 908.405 917.931 910.608 970.563 906.678 981.148 C 903.699 983.024 900.626 982.508 897.259 982.377 C 881.716 958.886 869.624 933.583 855.008 909.577 C 854.987 916.469 853.501 966.764 854.726 970.663 C 855.581 973.381 862.585 976.329 865.223 977.876 L 865.537 979.731 C 863.305 981.442 860.934 981.272 858.25 981.405 C 851.819 981.661 844.487 982.677 838.614 979.532 L 838.541 977.852 C 841.002 975.151 844.206 974.66 847.594 973.726 C 848.228 960.741 847.797 947.581 847.897 934.572 C 847.97 925.181 848.723 915.527 848.015 906.168 C 845.727 902.568 842.901 901.563 839.306 899.518 C 838.824 897.164 838.951 897.663 840.037 895.805 C 846.344 894.388 853.177 894.971 859.627 895.07 C 871.251 919.958 887.481 943.718 901.028 967.715 C 900.995 957.047 902.744 909.726 898.897 903.345 C 898.003 901.862 893.474 901.095 891.708 900.6 C 889.653 898.074 890.118 897.039 890.101 893.859 z"/>
<path transform="translate(0,0)" fill="rgb(9,31,83)" d="M 1832.6 894.615 C 1836.72 897.965 1842.68 916.783 1843.59 922.332 L 1874.53 923.495 C 1866.7 930.432 1858.42 936.819 1850.66 943.867 C 1853.47 953.675 1856.64 963.222 1860.09 972.82 C 1850.8 968.16 1842.45 961.696 1834.02 955.653 C 1827.23 957.39 1815.19 968.689 1808.73 973.201 C 1811.39 963.231 1814.29 953.287 1815.78 943.061 C 1807.75 936.532 1799.81 929.882 1791.98 923.113 C 1802.61 923.065 1813.27 922.313 1823.89 921.772 C 1826.52 912.614 1829.04 903.468 1832.6 894.615 z"/>
<path transform="translate(0,0)" fill="rgb(9,31,83)" d="M 491.054 887.13 C 498.897 886.614 506.868 886.906 514.73 886.936 C 514.594 900.609 514.783 914.4 513.77 928.038 C 519.51 922.008 524.142 917.29 532.997 916.944 C 537.079 916.784 540.584 917.333 543.812 920.038 C 549.381 924.705 549.193 934.778 549.193 941.379 C 549.192 948.884 546.491 966.981 550.172 973.046 C 552.41 973.461 554.613 973.888 556.823 974.433 C 558.273 976.671 558.067 976.699 557.634 979.364 C 555.271 981.74 552.446 981.602 549.182 981.586 C 543.698 981.539 538.216 981.375 532.74 981.093 C 534.696 978.069 536.606 975.002 538.75 972.107 C 538.927 962.211 542.19 938.206 535.132 931.126 C 532.904 928.892 529.602 928.059 526.534 928.375 C 522.025 928.84 517.426 931.021 513.397 932.997 C 512.255 942.398 511.3 963.292 513.813 971.75 C 514.797 975.061 523.099 978.439 526.091 980.203 C 516.558 981.924 505.31 981.711 495.602 981.399 L 495.8 979.224 L 495.699 979.481 C 498.365 975.397 502.377 970.168 503.212 965.287 C 504.294 958.957 503.343 951.416 503.4 944.91 C 503.545 928.438 504.073 911.902 503.544 895.437 C 499.415 892.616 495.252 889.847 491.054 887.13 z"/>
<path transform="translate(0,0)" fill="rgb(9,31,83)" d="M 486.657 891.332 C 487.86 891.199 488.738 891.586 489.884 891.921 C 493.11 897.259 492.175 911.057 490.793 916.889 C 488.881 918.289 488.838 918.537 486.506 918.405 C 483.589 915.569 482.939 908.918 481.984 905.01 C 477.406 900.494 468.183 901.317 462.113 901.001 C 462.138 910.549 460.547 963.006 462.434 967.746 C 464.595 973.172 472.318 974.06 473.867 979.682 L 472.514 981.309 C 463.501 981.48 454.06 982.329 445.088 981.914 C 442.627 981.8 441.578 981.618 439.865 979.853 C 439.833 978.295 439.824 977.559 440.618 976.152 C 440.806 975.818 441.034 975.508 441.242 975.186 L 451.007 971.613 C 451.169 948.265 451.04 924.917 450.621 901.573 C 444.633 901.351 438.862 901.509 432.889 901.976 C 431.053 908.128 430.901 913.349 426.801 918.561 L 425.108 918.725 C 421.547 911.943 423.933 900.471 424.734 893.001 C 441.025 893.128 472.119 895.65 486.657 891.332 z"/>
<path transform="translate(0,0)" fill="rgb(9,31,83)" d="M 586.11 917.073 C 593.119 916.808 600.041 917.052 605.402 922.219 C 611.849 928.432 611.435 937.478 611.262 945.67 C 599.191 947.229 587.542 950.854 575.335 951.434 C 576.293 956.64 577.064 962.067 579.998 966.599 C 582.064 969.79 585.208 972.433 589.066 972.964 C 595.505 973.852 601.039 969.66 605.819 965.984 C 607.608 967.571 608.395 969.192 608.567 971.517 C 607.407 974.865 605.45 976.501 602.48 978.293 C 596.509 981.898 589.572 984.297 582.611 982.36 C 576.474 980.653 572.011 975.91 569.207 970.359 C 564.15 960.345 563.791 947.22 567.457 936.713 C 570.861 926.956 576.911 921.336 586.11 917.073 z"/>
<path transform="translate(0,0)" fill="rgb(255,255,255)" d="M 587.326 924.724 C 588.908 924.884 590.405 925.031 591.91 925.582 C 594.843 926.657 597.988 929.428 599.116 932.381 C 600.119 935.003 599.283 936.821 598.271 939.197 C 595.736 941.874 592.573 942.001 589.118 942.609 L 575.824 943.651 C 578.315 935.013 579.693 930.017 587.326 924.724 z"/>
<path transform="translate(0,0)" fill="rgb(9,31,83)" d="M 1088.71 917.353 L 1090.07 917.271 C 1095.45 924.463 1087.91 961.255 1092.99 973.128 C 1095.45 973.173 1097.78 973.364 1100.22 973.653 L 1101.21 975.097 L 1100.48 977.523 C 1095.69 982.321 1086.99 982.091 1080.6 982.805 C 1080.42 978.291 1080.63 973.73 1080.7 969.213 L 1080.18 969.892 C 1075.7 975.584 1068.2 983.373 1060.4 983.533 C 1057.01 983.603 1054.2 981.861 1052 979.444 C 1043.28 969.847 1045.26 953.34 1045.43 941.299 C 1045.85 920.831 1040.07 930.584 1037.87 922.911 C 1041.8 918.575 1051 918.29 1056.52 917.497 L 1056.29 941.864 C 1056.24 948.398 1054.6 965.426 1059.21 970.098 C 1062.56 971.919 1065.82 973.402 1069.71 972.275 C 1073.87 971.068 1076.62 967.197 1078.28 963.41 C 1081.98 954.933 1082.95 936.205 1079.42 927.536 C 1077.06 926.973 1075.22 926.555 1073.11 925.287 C 1073.1 922.937 1073.14 922.552 1074.34 920.544 C 1078.72 918.28 1083.88 918.026 1088.71 917.353 z"/>
<path transform="translate(0,0)" fill="rgb(9,31,83)" d="M 711.157 917.108 C 717.747 916.529 724.311 916.449 729.584 921.012 C 733.482 924.384 735.852 929.612 735.979 934.757 C 736.075 938.636 734.321 943.28 731.362 945.866 C 724.748 951.645 714.773 947.872 707.062 947.9 C 704.563 947.909 703.664 948.437 702.083 950.262 C 701.521 955.752 703.507 964.83 707.29 968.98 C 709.538 971.445 712.016 972.949 715.38 973.212 C 722.062 973.735 725.991 970.347 730.745 966.147 C 732.627 967.504 734.009 968.604 735.382 970.485 C 734.245 974.265 730.112 977.028 726.818 979.093 C 721.585 982.374 715.564 984.114 709.452 982.475 C 703.348 980.839 698.572 976.286 695.543 970.866 C 690.221 961.345 689.707 947.168 692.984 936.822 C 696.134 926.873 702.146 921.67 711.157 917.108 z"/>
<path transform="translate(0,0)" fill="rgb(255,255,255)" d="M 713.308 923.86 C 716.595 924.001 719.002 924.05 721.69 926.247 C 723.771 927.948 725.288 930.549 725.341 933.273 C 725.388 935.776 724.171 938.359 722.381 940.071 C 719.909 942.437 715.718 942.169 712.517 942.307 C 708.948 942.637 705.447 943.288 701.918 943.907 C 702.296 941.631 702.726 939.364 703.21 937.108 C 704.69 930.436 707.672 927.457 713.308 923.86 z"/>
<path transform="translate(0,0)" fill="rgb(9,31,83)" d="M 947.342 917.07 C 953.353 917.001 959.927 918.084 964.449 922.416 C 971.15 928.836 970.423 939.027 970.546 947.5 C 960.254 948.535 947.366 946.176 937.884 950.39 C 936.844 951.874 936.377 952.244 936.105 954.115 C 935.473 958.473 937.566 963.259 940.271 966.591 C 943.078 970.048 947.174 972.502 951.684 972.734 C 957.642 973.041 961.634 969.5 965.872 965.837 C 967.989 967.915 968.974 968.36 969.488 971.346 C 967.544 975.81 960.945 979.401 956.599 981.281 C 951.511 983.483 946.022 983.951 940.835 981.811 C 935.077 979.435 931.021 973.938 928.693 968.344 C 924.303 957.799 924.715 945.043 929.196 934.603 C 932.933 925.897 938.635 920.547 947.342 917.07 z"/>
<path transform="translate(0,0)" fill="rgb(255,255,255)" d="M 946.318 924.865 C 948.344 924.651 950.338 924.331 952.333 924.959 C 955.327 925.902 957.576 928.621 958.824 931.402 C 960.232 934.541 959.587 936.773 958.378 939.724 C 955.88 941.984 954.562 941.587 951.273 941.848 L 936.518 942.292 L 936.775 941.419 L 937.221 939.969 C 939.278 933.147 940.792 929.487 946.318 924.865 z"/>
<path transform="translate(0,0)" fill="rgb(9,31,83)" d="M 1248.53 917.212 C 1250.38 917.128 1252.09 917.11 1253.93 917.37 C 1258.28 917.987 1263.03 919.285 1265.67 923.112 C 1268.25 926.842 1270.91 933.276 1269.72 937.869 C 1266.6 949.905 1246 945.118 1238.26 951.072 C 1236.29 952.589 1235.65 954.278 1235.47 956.698 C 1235.19 960.459 1238.39 966.73 1241.07 969.229 C 1252.5 979.874 1257.05 967.834 1266.97 968.498 C 1267.39 968.526 1267.78 968.671 1268.19 968.757 C 1268.07 969.284 1267.99 969.826 1267.82 970.337 C 1265.74 976.325 1259.88 979.981 1254.3 982.281 C 1249.44 984.284 1244.29 984.511 1239.46 982.255 C 1232.77 979.128 1228.38 972.412 1226.3 965.523 C 1223.09 954.914 1223.93 941.471 1229.26 931.666 C 1233.67 923.531 1239.87 919.741 1248.53 917.212 z"/>
<path transform="translate(0,0)" fill="rgb(255,255,255)" d="M 1245.95 924.857 C 1247.22 924.825 1248.24 924.769 1249.53 924.889 C 1252.88 925.2 1255.87 926.653 1257.65 929.614 C 1258.92 931.725 1259.15 934.263 1258.15 936.533 C 1256.49 940.313 1253.15 941.398 1249.56 942.62 C 1246.08 943.286 1242.75 944.296 1239.26 943.287 C 1237.38 941.409 1237.22 941.15 1236.68 938.557 C 1237.94 932.829 1241.48 928.485 1245.95 924.857 z"/>
<path transform="translate(0,0)" fill="rgb(9,31,83)" d="M 1383.5 917.187 C 1384.09 917.162 1384.69 917.126 1385.29 917.114 C 1391.37 916.99 1397.21 917.736 1401.66 922.239 C 1404.48 925.095 1408.07 929.684 1407.53 933.976 C 1405.91 946.949 1381.56 946.535 1373.48 952.23 C 1372.51 956.194 1372.94 960.708 1374.79 964.375 C 1376.88 968.483 1379.11 972.029 1383.72 973.473 C 1390.95 975.735 1397.48 971.606 1403.53 968.158 C 1404.09 968.148 1404.56 968.618 1405.05 968.887 C 1405 969.947 1405.03 970.801 1404.62 971.836 C 1402.65 976.772 1395.21 980.515 1390.63 982.362 C 1385.64 984.376 1380.9 983.783 1376.04 981.634 C 1369.76 978.861 1365.74 973.212 1363.64 966.837 C 1359.96 955.713 1360.88 940.85 1366.46 930.508 C 1370.59 922.85 1375.27 919.581 1383.5 917.187 z"/>
<path transform="translate(0,0)" fill="rgb(255,255,255)" d="M 1384.41 923.9 C 1385.89 923.919 1387.28 923.99 1388.71 924.424 C 1391.03 925.126 1393.01 926.696 1394 928.946 C 1395.11 931.45 1394.55 934.255 1393.39 936.624 C 1391.26 940.971 1387.76 942.026 1383.49 943.591 L 1372.52 945.192 C 1373.66 940.44 1374.88 935.708 1376.19 930.999 C 1378.58 928.248 1381.54 926.127 1384.41 923.9 z"/>
<path transform="translate(0,0)" fill="rgb(9,31,83)" d="M 1159.21 893.735 C 1169.51 894.223 1181.93 891.705 1191.58 895.376 C 1193.18 897.296 1193.11 897.167 1192.91 899.666 C 1189.68 901.961 1185.52 901.889 1181.69 902.284 C 1179.11 925.122 1181 950.753 1181.01 973.86 C 1189.19 973.863 1197.22 973.664 1205.37 972.967 C 1207.1 967.479 1208.3 958.14 1213.4 955.061 C 1215.61 956.44 1215.14 956.836 1215.73 959.247 C 1214.91 966.624 1213.61 973.996 1212.56 981.349 C 1203.54 980.873 1164.41 983.766 1159.05 978.743 C 1159.89 976.339 1165.04 974.684 1167.42 973.325 C 1169.65 969.558 1170.06 965.628 1170.3 961.309 C 1170.76 952.953 1172.21 906.786 1168.3 902.381 C 1165.79 901.71 1162.8 901.242 1160.78 899.533 C 1159.47 898.427 1159.49 895.402 1159.21 893.735 z"/>
<path transform="translate(0,0)" fill="rgb(9,31,83)" d="M 983.8 919.563 C 988.029 919.31 992.255 919.01 996.478 918.661 C 999.752 926.059 1003.28 933.174 1007.18 940.264 C 1011.25 934.467 1015.73 921.936 1022.71 919.455 C 1025.09 918.609 1026.53 918.625 1028.84 919.537 L 1029.76 921.787 C 1029.59 923.056 1029.61 923.664 1028.87 924.897 C 1026.63 928.643 1021.74 932.279 1018.83 935.645 C 1015.99 938.926 1013.74 943.011 1011.46 946.701 C 1014.96 954.221 1019.4 967.514 1025.67 972.756 C 1027.91 972.942 1030.01 973.226 1032.21 973.682 L 1033.26 975.922 C 1032.98 978.49 1033.15 979.173 1031.49 981.094 C 1025.77 981.655 1020.28 981.845 1014.54 981.668 C 1014 980.994 1013.64 979.934 1013.52 979.102 C 1012.22 970.534 1009.19 963.917 1005.07 956.286 C 1002.76 959.658 1000.15 963.307 998.448 967.015 C 996.598 971.04 996.826 976.916 993.502 980.132 C 989.74 983.771 981.015 982.385 976.174 982.266 C 979.666 975.307 986.606 971.995 991.5 965.803 C 994.98 961.4 997.392 955.476 999.92 950.463 C 999.669 949.756 999.408 949.051 999.11 948.361 C 997.062 943.631 991.237 928.715 986.465 926.504 C 984.868 925.764 981.707 926.244 979.613 925.431 L 979.149 923.199 C 980.908 920.497 980.708 920.309 983.8 919.563 z"/>
<path transform="translate(0,0)" fill="rgb(9,31,83)" d="M 1126.42 917.196 C 1129.4 917.102 1132.6 916.873 1135.56 917.268 C 1139.42 917.785 1142.61 920.102 1144.67 923.361 C 1146.35 926.004 1146.62 928.279 1145.81 931.313 C 1143.69 933.43 1143.32 933.534 1140.37 934.175 C 1139.05 931.267 1137.56 927.135 1134.95 925.172 C 1132.9 923.624 1130.07 923.247 1127.59 923.765 C 1124.96 924.315 1122.53 925.858 1121.16 928.209 C 1114.28 940.062 1145.56 946.585 1149.04 960.272 C 1150.2 964.828 1149.06 970.459 1146.38 974.299 C 1142.04 980.512 1134.28 981.81 1127.36 983.048 C 1123.7 982.787 1120.06 982.434 1116.5 981.467 C 1113.43 980.631 1110.98 978.883 1109.73 975.813 C 1108.69 973.269 1108.99 970.047 1110.13 967.568 C 1111.03 965.626 1111.86 964.149 1113.94 963.471 L 1115.88 964.815 C 1117.17 967.875 1118.41 971.82 1121.2 973.865 C 1123.8 975.771 1128.11 976.77 1131.23 975.795 C 1134.46 974.783 1137.31 972.781 1139.11 969.931 C 1139.61 957.661 1115.75 952.168 1110.74 940.416 C 1109.07 936.51 1109.25 932.715 1111.01 928.88 C 1114.19 921.969 1119.57 919.595 1126.42 917.196 z"/>
<path transform="translate(0,0)" fill="rgb(9,31,83)" d="M 762.46 917.199 C 767.357 916.901 773.553 916.472 777.918 919.207 C 780.023 920.525 781.572 922.103 782.002 924.646 C 782.55 927.889 781.174 930.956 779.471 933.6 C 775.177 932.801 773.278 926.979 769.167 925.156 C 766.828 924.119 765.212 924.041 762.859 925.074 C 760.292 926.2 758.652 928.967 757.471 931.336 C 757.275 943.749 781.36 946.61 785.283 960.034 C 786.473 964.109 785.369 967.733 783.381 971.333 C 779.444 978.461 775.567 980.855 767.884 983.141 C 761.61 983.147 754.395 983.986 748.746 980.685 C 746.939 979.629 746.254 978.674 745.899 976.55 C 745.445 973.83 746.009 971.446 747.424 969.22 C 752.689 968.711 758.082 975.5 764.034 975.623 C 767.904 975.704 769.746 974.39 772.225 971.749 C 778.601 954.435 753.413 957.406 746.723 937.638 C 745.705 934.632 745.441 931.251 747.026 928.367 C 750.191 922.608 756.529 919.237 762.46 917.199 z"/>
<path transform="translate(0,0)" fill="rgb(9,31,83)" d="M 1476.76 917.149 C 1482.82 916.774 1488.73 918.427 1494.61 919.705 C 1494.83 924.703 1495.36 931.478 1493.01 936.014 C 1490.68 935.489 1486.98 928.344 1484.59 926.355 C 1482.33 924.465 1480.87 924.29 1478.01 924.4 C 1475.5 925.583 1473.69 926.372 1472.35 929.01 C 1467.14 939.268 1494.11 946.398 1498.81 961.837 C 1499.9 965.403 1499.72 968.685 1497.84 971.984 C 1494.56 977.763 1485.38 981.454 1479.35 983.002 C 1472.84 983.342 1468.01 981.535 1462.02 979.277 C 1461.88 974.558 1461.1 968.81 1462.95 964.417 L 1464.52 964.417 C 1467 966.92 1469.39 969.532 1471.91 971.984 C 1474.21 974.211 1477.14 976.33 1480.54 975.808 C 1482.95 975.438 1485.89 973.435 1487.21 971.325 C 1488.1 969.91 1489.61 966.425 1488.79 964.704 C 1484.42 955.616 1464.18 951.696 1460.39 934.482 C 1459.67 931.21 1459.96 928.394 1461.98 925.616 C 1465.34 920.981 1471.35 918.25 1476.76 917.149 z"/>
<path transform="translate(0,0)" fill="rgb(9,31,83)" d="M 1293.46 902.144 C 1295.04 902.528 1295.39 902.755 1296.62 903.708 C 1297.85 908.589 1297.05 913.986 1296.78 918.979 C 1302.92 918.858 1308.41 917.935 1313.63 921.822 L 1313.71 923.459 C 1308.93 927.991 1301.93 926.751 1295.85 926.599 C 1295.66 939.205 1293.99 954.045 1295.82 966.414 C 1296.31 969.681 1297.48 971.225 1300.16 973.194 C 1303.73 973.78 1307.27 971.409 1310.49 969.969 L 1311.98 970.831 L 1312.3 975.033 C 1310.81 976.736 1309.17 978.294 1307.39 979.686 C 1303.95 982.381 1298.5 983.844 1294.17 982.873 C 1275.63 978.721 1289.69 935.911 1283.52 926.976 C 1281.38 926.879 1280.01 926.956 1278.24 925.657 C 1277.75 923.608 1277.78 922.736 1278.49 920.75 C 1288.98 916.459 1286.39 908.951 1293.46 902.144 z"/>
<path transform="translate(0,0)" fill="rgb(9,31,83)" d="M 1557.43 917.158 C 1563.98 916.643 1569.94 918.228 1576.21 919.812 C 1576.54 923.978 1577.45 929.552 1575.16 933.218 C 1571.69 932.8 1568.15 928.269 1565.2 926.144 C 1563.16 924.667 1560.73 923.373 1558.13 924.012 C 1554.63 924.873 1552.72 927.744 1551.17 930.785 C 1546.44 940.067 1544.52 951.885 1547.78 961.909 C 1549.11 965.999 1551.79 970.411 1555.93 972.148 C 1561.04 974.29 1565.4 972.902 1570.28 970.847 C 1571.5 969.666 1572.63 968.822 1574.02 967.862 L 1575.63 968.861 L 1575.62 971.442 C 1573.43 975.738 1570.36 979.237 1565.86 981.231 C 1560.4 983.654 1554.13 983.01 1548.75 980.666 C 1543.06 978.187 1539.1 973.391 1536.92 967.659 C 1533.06 957.487 1533.56 943.905 1538.22 934.065 C 1542.55 924.936 1548.21 920.642 1557.43 917.158 z"/>
<path transform="translate(0,0)" fill="rgb(9,31,83)" d="M 1332.05 903.153 L 1335.9 904.095 C 1338.54 907.945 1337.26 914.314 1336.95 918.809 C 1340.99 918.684 1346.97 917.845 1350.61 919.734 C 1352.52 920.73 1352.73 920.693 1353.38 922.83 C 1353.14 923.117 1352.92 923.431 1352.64 923.69 C 1348.71 927.371 1341.37 926.093 1336.41 925.888 C 1336.14 938.772 1333.66 956.925 1337.29 969.302 C 1338.03 971.833 1338.88 972.499 1341.09 973.79 C 1345.08 974.091 1349.27 972.03 1352.99 970.698 L 1354.36 971.579 L 1354.57 974.778 C 1351.94 977.648 1349.53 980.066 1346.07 981.976 C 1342.97 983.693 1339.23 985.428 1335.65 984.02 C 1317.88 977.022 1329.46 931.703 1325.41 926.929 C 1323.31 924.449 1319.12 925.197 1317.32 921.681 C 1318.95 920.15 1318.25 920.412 1320.17 919.903 C 1321.68 919.505 1323.53 919.294 1324.95 918.638 C 1326.94 917.714 1327.57 916.106 1328.24 914.151 L 1332.05 903.153 z"/>
<path transform="translate(0,0)" fill="rgb(9,31,83)" d="M 810.222 902.557 C 812.541 907.193 811.424 913.761 811.239 918.826 C 812.733 918.722 814.228 918.631 815.723 918.553 C 820.387 918.311 823.27 917.916 827.011 921.275 L 827.079 923.092 C 826.794 923.382 826.53 923.693 826.225 923.96 C 822.111 927.562 816.094 926.499 811.005 926.347 C 811.04 936.079 808.703 961.563 812.111 969.364 C 814.696 975.283 822.021 971.535 826.755 973.464 C 827.254 976.125 826.631 976.519 825.578 978.917 C 820.761 981.239 815.307 983.959 809.784 982.88 C 790.98 979.205 806.174 938.325 798.996 927.078 C 796.574 926.497 794.449 926.099 792.395 924.595 C 792.272 921.916 792.289 921.964 793.954 919.854 C 803.078 917.453 805.572 910.121 810.222 902.557 z"/>
<path transform="translate(0,0)" fill="rgb(9,31,83)" d="M 1437.19 926.809 C 1440.58 922.19 1442.98 917.958 1449.01 916.676 C 1451.5 917.398 1452.46 917.661 1453.93 920.039 C 1456.12 923.591 1454.59 931.019 1454.24 935.097 C 1450.88 932.638 1447.74 929.77 1443.53 929.088 L 1439.99 930.033 C 1439.01 931.318 1438.02 932.636 1437.12 933.984 C 1432.04 941.581 1432.66 963.939 1434.43 972.533 C 1436.67 974.792 1437.98 974.485 1441.07 974.903 C 1442.9 976.775 1442.56 977.11 1442.64 979.768 L 1441.07 980.988 C 1434.14 981.058 1423.95 982.495 1417.44 980.527 L 1416.77 977.906 C 1418.23 975.039 1419.5 975.108 1422.41 973.924 C 1425.92 969.639 1423.95 936.194 1423.86 928.555 C 1421 928.178 1416.99 928.063 1414.6 926.455 C 1413.28 925.567 1413.74 925.563 1413.62 923.762 C 1418.57 919.29 1426.75 917.802 1433.03 915.906 C 1433.23 920.391 1432.82 924.676 1433.72 929.128 L 1434.83 929.527 L 1437.19 926.809 z"/>
<path transform="translate(0,0)" fill="rgb(9,31,83)" d="M 1514.63 964.771 C 1516.54 964.768 1519.59 964.467 1521.08 965.679 C 1523.04 967.269 1523.97 969.541 1523.84 972.065 C 1523.62 976.533 1521.82 979.17 1518.62 982.083 C 1516.56 981.715 1515.16 981.516 1513.33 980.434 C 1511.49 979.353 1510.22 977.093 1510.05 974.966 C 1509.72 970.827 1511.98 967.638 1514.63 964.771 z"/>
</svg>